<?xml version="1.0" encoding="UTF-8"?>
<svg width="40px" height="40px" viewBox="-0.03499999999999992 -3.47 40 40" fill="none" xmlns="http://www.w3.org/2000/svg" xmlns:bx="https://boxy-svg.com"><defs><bx:export><bx:file format="svg"/></bx:export></defs><path d="M19.245 31.8826H0L5.36628 11.8138C7.22969 4.84645 13.5429 0 20.755 0H40L34.6337 20.0688C32.7703 27.0361 26.4587 31.8826 19.245 31.8826Z" fill="#FF9B21"/><path d="M8.41191 12.6279L4.10449 28.7348H19.242C25.029 28.7348 30.093 24.8464 31.5885 19.2562L35.8959 3.14935H20.7584C14.9714 3.14935 9.90744 7.03771 8.41191 12.6279Z" fill="#6A281C"/><path d="M24.5746 6.73063C24.5825 6.70024 24.5602 6.67145 24.5298 6.67145H22.9831C21.9498 6.67145 21.0797 6.75782 20.3743 6.93057C19.6849 7.10331 19.1299 7.40081 18.706 7.82308C18.2982 8.23095 18.0007 8.77797 17.8135 9.46735C17.6408 10.1567 17.5544 11.0189 17.5544 12.0521V12.452C17.5544 12.4776 17.5336 12.4984 17.508 12.4984H15.5103C15.4847 12.4984 15.4639 12.5192 15.4639 12.5448V15.3647C15.4639 15.3903 15.4847 15.4111 15.5103 15.4111H17.508C17.5336 15.4111 17.5544 15.4318 17.5544 15.4574V25.1391C17.5544 25.1647 17.5752 25.1855 17.6008 25.1855H20.7262C20.7518 25.1855 20.7726 25.1647 20.7726 25.1391V15.4574C20.7726 15.4318 20.7934 15.4111 20.819 15.4111H23.7796C23.8052 15.4111 23.826 15.3903 23.826 15.3647V12.5448C23.826 12.5192 23.8052 12.4984 23.7796 12.4984H20.819C20.7934 12.4984 20.7726 12.4776 20.7726 12.452V11.8874C20.7726 11.4011 20.7966 11.0173 20.8429 10.7357C20.8893 10.4382 20.9997 10.2111 21.1724 10.0544C21.3612 9.88162 21.6187 9.77286 21.9482 9.72487C22.2777 9.66249 22.7239 9.6305 23.287 9.6305H23.7908C23.8116 9.6305 23.8308 9.61611 23.8356 9.59531L24.573 6.72903L24.5746 6.73063Z" fill="white"/></svg>