<?xml version="1.0" encoding="UTF-8"?>
<svg id="Laag_1" data-name="Laag 1" xmlns="http://www.w3.org/2000/svg" viewBox="-50 -50 400 230">
  <defs>
    <style>
      .cls-1 {
        fill: #fff;
      }
      .cls-2 {
        fill: #10357e;
      }
    </style>
  </defs>
  <rect x="-50" y="-50" width="400" height="230" class="cls-2"/>
  <path class="cls-1" d="m63.53,105.7h-8.63v-31.62h0v-11.14h-9.93s9.85-8.91,9.85-10.86V18.42c-.51-3.85-3.8-6.83-7.79-6.83h-21.66v7.86h-.03v97.38h11.19v-42.76h7.21v34.9c0,4.34,3.52,7.86,7.86,7.86h13.22v-11.14h-1.31ZM43.75,26.59v36.34h-7.21V22.74h7.21v3.85Z"/>
  <g>
    <path class="cls-1" d="m231.53,11.6c-25.02,0-45.31,20.29-45.31,45.31,2.39,60.1,88.24,60.09,90.62,0,0-25.02-20.29-45.31-45.31-45.31Zm0,79.36c-18.8,0-34.05-15.24-34.05-34.05s15.24-34.05,34.05-34.05,34.05,15.24,34.05,34.05-15.24,34.05-34.05,34.05Z"/>
    <rect class="cls-1" x="186.35" y="105.66" width="90.37" height="11.14"/>
  </g>
  <path class="cls-1" d="m96.83,33.16v72.53h10.27v11.14h-13.56c-4.34,0-7.86-3.52-7.86-7.86V33.16h11.14Z"/>
  <rect class="cls-1" x="85.33" y=".96" width="11.14" height="32.41" transform="translate(73.73 108.07) rotate(-90)"/>
  <path class="cls-1" d="m146.57,62.93s9.85-8.91,9.85-10.86V11.6h-21.66c-4.34,0-7.86,3.52-7.86,7.86v89.48c0,4.34,3.52,7.86,7.86,7.86h10.52v10.37h11.14v-53.1h10.01v-11.14h-19.86Zm-1.29,42.73h-7.24v-31.58h7.24v31.58Zm0-53.59v10.86h-7.24V22.74h7.24v29.33Z"/>
</svg>